<?xml version="1.0" encoding="UTF-8"?>
<svg width="1200pt" height="1200pt" version="1.1" viewBox="0 0 1200 1200" xmlns="http://www.w3.org/2000/svg">
 <g>
  <path d="m488.4 387.6v-132h637.2l0.003906 356.4h-637.2v-85.199c-3.5977 1.1992-6 1.1992-8.3984 1.1992h-36v106.8c0 12 9.6016 21.602 21.602 21.602h681.6c12 0 21.602-9.6016 21.602-21.602l-0.003907-400.8c0-12-9.6016-21.602-21.602-21.602h-681.6c-12 0-21.602 9.6016-21.602 21.602v153.6h36c2.3984-1.2031 4.8008 0 8.3984 0z"/>
  <path d="m561.6 852h-20.398c-54 0-97.199 43.199-97.199 97.199l-0.003906 22.801c0 8.3984 7.1992 15.602 15.602 15.602h184.8c8.3984 0 15.602-7.1992 15.602-15.602v-21.602c-0.003906-54-44.402-98.398-98.402-98.398z"/>
  <path d="m613.2 770.4c0 33.801-27.398 61.203-61.199 61.203s-61.199-27.402-61.199-61.203c0-33.797 27.398-61.199 61.199-61.199s61.199 27.402 61.199 61.199"/>
  <path d="m817.2 852h-20.398c-54 0-97.199 43.199-97.199 97.199v22.801c0 8.3984 7.1992 15.602 15.602 15.602h184.8c8.3984 0 15.602-7.1992 15.602-15.602v-21.602c-1.207-54-44.406-98.398-98.406-98.398z"/>
  <path d="m867.6 770.4c0 33.801-27.402 61.203-61.203 61.203-33.797 0-61.199-27.402-61.199-61.203 0-33.797 27.402-61.199 61.199-61.199 33.801 0 61.203 27.402 61.203 61.199"/>
  <path d="m1072.8 852h-20.398c-54 0-97.199 43.199-97.199 97.199l-0.003906 22.801c0 8.3984 7.1992 15.602 15.602 15.602h184.8c8.3984 0 15.602-7.1992 15.602-15.602v-21.602c-1.2031-54-44.402-98.398-98.402-98.398z"/>
  <path d="m1123.2 770.4c0 33.801-27.398 61.203-61.199 61.203s-61.199-27.402-61.199-61.203c0-33.797 27.398-61.199 61.199-61.199s61.199 27.402 61.199 61.199"/>
  <path d="m307.2 493.2h172.8c19.199 0 34.801-15.602 34.801-34.801 0-19.199-15.602-34.801-34.801-34.801l-202.8 0.003906c-3.6016 6-8.3984 10.801-13.199 14.398-14.398 12-36 12-51.602 0-4.8008-3.6016-9.6016-8.3984-13.199-13.199-14.398 1.1992-27.602 3.6016-40.801 10.801-18 8.3984-102 57.602-110.4 63.602-8.3984 4.8008-14.398 13.199-16.801 22.801-2.3984 9.6016 0 20.398 6 27.602l56.398 76.801c7.1992 9.6016 18 14.398 28.801 14.398 6 0 10.801-1.1992 16.801-4.8008-9.6016 28.801-22.801 60-40.801 93.602-8.3984 16.801 13.199 31.199 46.801 40.801l-14.398 177.6c-1.1992 21.602 14.398 39.602 34.801 40.801 21.602 1.1992 39.602-14.398 40.801-34.801l14.398-174.01c10.801 0 22.801 1.1992 33.602 0l14.398 172.8c1.1992 20.398 18 34.801 38.398 34.801h3.6016c21.602-1.1992 37.199-20.398 34.801-40.801l-14.398-176.4c33.602-10.801 51.602-28.801 36-57.602-50.402-96-58.805-177.6-60.004-219.6zm-154.8 93.602c-1.1992-1.1992-1.1992-2.3984-2.3984-4.8008l-33.602-44.398c18-10.801 36-20.398 49.199-28.801-1.1992 20.398-4.7969 46.801-13.199 78z"/>
  <path d="m158.4 312c-1.1992 4.8008-1.1992 9.6016-1.1992 14.398 0 44.398 36 80.398 80.398 80.398 44.398 0 80.398-36 80.398-80.398 0-44.398-36-80.398-80.398-80.398-8.3984 0-16.801 1.1992-25.199 4.8008-7.1992-9.6016-19.199-15.602-32.398-15.602-22.801 0-42 19.199-42 42 0 14.402 8.3984 27.602 20.398 34.801z"/>
  <path d="m574.8 356.4h464.4c12 0 21.602-9.6016 21.602-21.602s-9.6016-21.602-21.602-21.602l-464.4 0.003907c-12 0-21.602 9.6016-21.602 21.602-1.1992 10.801 9.6016 21.598 21.602 21.598z"/>
  <path d="m574.8 456h464.4c12 0 21.602-9.6016 21.602-21.602s-9.6016-21.602-21.602-21.602l-464.4 0.003906c-12 0-21.602 9.6016-21.602 21.602 0 11.996 9.6016 21.598 21.602 21.598z"/>
  <path d="m574.8 556.8h464.4c12 0 21.602-9.6016 21.602-21.602s-9.6016-21.602-21.602-21.602l-464.4 0.003906c-12 0-21.602 9.6016-21.602 21.602 0 11.996 9.6016 21.598 21.602 21.598z"/>
 </g>
</svg>
