<?xml version="1.0" encoding="UTF-8"?>
<svg width="1200pt" height="1200pt" version="1.1" viewBox="0 0 1200 1200" xmlns="http://www.w3.org/2000/svg">
 <g>
  <path d="m600 30c-314.4 0-570 255.6-570 570s255.6 570 570 570 570-255.6 570-570-255.6-570-570-570zm379.2 906-174-174-33.598 54 164.4 163.2c-90 79.199-206.4 128.4-336 128.4-279.6 0-507.6-228-507.6-507.6 0-128.4 48-246 127.2-336l220.8 219.6c-3.6016-12-4.8008-24-4.8008-37.199 0-15.602 3.6016-31.199 10.801-45.602l-182.4-180c90-79.199 206.4-128.4 336-128.4 279.6 0 507.6 228 507.6 507.6 0 128.39-49.203 246-128.4 336z"/>
  <path d="m778.8 566.4-195.6-156c-20.398-15.602-49.199-15.602-68.398 1.1992-22.801 20.398-24 55.199-2.3984 76.801l82.801 82.801-86.402 136.8-42-51.602c-10.801-14.398-28.801-21.602-46.801-20.398-18 1.1992-34.801 10.801-44.398 25.199l-97.199 152.4c-16.801 26.398-9.6016 61.199 16.801 76.801 26.398 16.801 61.199 9.6016 76.801-16.801l56.398-86.398 76.801 98.398c2.3984 2.3984 3.6016 4.8008 6 7.1992 21.602 19.199 50.398 27.602 79.199 24 28.801-3.6016 54-20.398 69.602-44.398l133.2-207.6c21.598-33.598 14.398-74.398-14.402-98.398z"/>
  <path d="m874.8 294c-55.199-36-128.4-19.199-164.4 36s-19.199 128.4 36 164.4c55.199 36 128.4 19.199 164.4-36 36-55.199 19.199-128.4-36-164.4z"/>
 </g>
</svg>
